# xmcd
#
# Track frame offsets:
#	150
#	1855
#	12248
#	33093
#	42243
#	54918
#	65868
#	77343
#	91068
#	101268
#	110793
#	121818
#	132693
#	145818
#	154743
#	166668
#	180618
#	190593
#	201543
#	210318
#	221268
#	231318
#	241518
#
# Disc length: 3350 seconds
#
# Revision: 0
# Processed by: cddbd v1.5.1PL0 Copyright (c) Steve Scherf et al.
# Submitted via: EasyCDDAExtractor 8.0.1.1
#
DISCID=240d1417
DTITLE=Various Artist - A Musical Anthology Disc 1
DYEAR=1992
DGENRE=Acid Punk
TTITLE0=Lawrence Welk Orchestra - Fanfare and Opening - Champagne Time       
TTITLE1=Lawrence Welk Orchestra - Bubbles In The Wine
TTITLE2=Norma Zimmer and Jimmy Roberts - Tea For Two
TTITLE3=Lawrence Welk and Myron Floren - Beer Barrel Polka
TTITLE4=The Lennon Sisters - Scarlet Ribbons
TTITLE5=Anaconi - Paloma Blanca
TTITLE6=Lawrence Welk Orchestra - Petite Waltz
TTITLE7=Ralna English - How Great Thou Art
TTITLE8=Lawrence Welk Orchestra - Calcutta
TTITLE9=Jo Ann Castle - Sheik Of Araby
TTITLE10=Ken Delo - Hawaiian Wedding Song
TTITLE11=Pete Fountain - Sweethearts On Parade
TTITLE12=Joe Feeney - The Song Is You
TTITLE13=Myron Floren - Tico Tico
TTITLE14=Lawrence Welk Orchestra - Watch What Happens
TTITLE15=Lawrence Welk Orchestra - Begin The Beguine
TTITLE16=Lawrence Welk Orchestra - Scatterbrain
TTITLE17=Clay Hart - Tie A Yellow Ribbon (Round the Old Oak Tree)
TTITLE18=Myron Floren - Clarinet Polka
TTITLE19=Sandi And Salli - Raindrops Keep Fallin' On My Head
TTITLE20=Lawrence Welk Orchestra - Fascination
TTITLE21=Larry Hooper - My Grandfather's Clock
TTITLE22=Lawrence Welk Orchestra - Blue Danube Waltz
EXTD=
EXTT0=
EXTT1=
EXTT2=
EXTT3=
EXTT4=
EXTT5=
EXTT6=
EXTT7=
EXTT8=
EXTT9=
EXTT10=
EXTT11=
EXTT12=
EXTT13=
EXTT14=
EXTT15=
EXTT16=
EXTT17=
EXTT18=
EXTT19=
EXTT20=
EXTT21=
EXTT22=
PLAYORDER=
